<?xml version="1.0" encoding="UTF-8" standalone="no"?>
<!-- Created with Inkscape (http://www.inkscape.org/) -->
<svg
   xmlns:svg="http://www.w3.org/2000/svg"
   xmlns="http://www.w3.org/2000/svg"
   version="1.0"
   width="712.91339"
   height="428.03149"
   id="svg7965">
  <defs
     id="defs7967" />
  <g
     transform="translate(3.8319159,-265.53041)"
     id="layer1">
    <g
       transform="translate(17.791783,17.755562)"
       id="g8229">
      <path
         d="M 422.97882,376.60323 L 422.44092,325.30261 C 418.40648,329.33669 407.78336,331.69004 403.61507,332.83291 L 246.21673,376.87204 C 259.19302,379.56155 264.30287,386.68869 264.63917,403.09398 L 265.98393,542.33854 C 265.98393,569.29999 262.95829,581.873 252.67113,584.83139 C 244.0652,587.3192 238.35009,583.68834 227.18893,573.87205 L 146.03569,491.17263 L 236.73635,379.56155 L 136.82447,407.53155 C 152.89378,411.49853 157.86931,422.59226 146.17029,437.11511 L 85.927255,518.33556 L 85.658447,451.16737 C 86.061748,434.3585 95.00416,423.26476 103.8794,416.67548 L -3.8319159,446.8643 C 9.0100514,449.28475 14.388712,456.54603 14.926506,473.22049 L 16.136946,612.66672 C 16.136946,626.98815 16.540247,643.72974 -2.3528828,658.05078 L 104.2152,628.26562 C 89.087455,624.02958 86.532546,613.60828 86.263452,599.35424 L 86.061748,539.04414 L 153.02834,614.61666 L 202.44641,600.69882 L 354.12936,558.00462 C 339.74118,551.21364 336.17761,539.9182 336.4467,522.36965 L 336.1105,471.67414 L 370.66953,461.79045 C 386.80591,457.4202 393.86591,459.16833 402.80804,464.54735 L 402.33742,414.59134 C 398.16877,418.62539 387.61258,421.11323 383.51157,422.2561 L 336.04329,435.63597 L 335.57264,387.83156 L 390.97456,372.30016 C 406.90941,368.33318 414.43967,370.35022 422.97882,376.60323"
         style="font-size:2.27740002px;letter-spacing:0;word-spacing:0;fill:#df0038;fill-rule:nonzero;stroke:none;stroke-width:0.38100001;stroke-miterlimit:4;font-family:fnt2, &quot;GillSans&quot;, Arial"
         id="path1695" />
      <path
         d="M 581.92326,464.68166 C 537.95095,476.98569 504.60247,452.71372 495.12244,418.62539 C 484.49897,380.90637 504.53518,334.44655 555.43258,319.9238 C 571.36707,315.68802 589.45353,312.99861 614.06173,317.03259 L 614.06173,274.53974 C 598.73206,275.27931 579.36831,278.23781 556.97864,284.6922 C 455.11729,313.33481 405.90088,390.65557 422.37364,449.28475 C 434.61045,493.32388 482.34736,527.68128 564.84568,504.7541 C 589.05055,497.76152 612.58259,489.76056 631.47572,480.07858 L 631.47572,440.40952 C 616.95308,450.02422 598.0596,460.10961 581.92326,464.68166"
         style="font-size:2.27740002px;letter-spacing:0;word-spacing:0;fill:#df0038;fill-rule:nonzero;stroke:none;stroke-width:0.38100001;stroke-miterlimit:4;font-family:fnt2, &quot;GillSans&quot;, Arial"
         id="path1699" />
      <path
         d="M 24.003411,619.05429 L 22.995033,473.35498 C 23.129527,455.60483 19.834762,450.69668 13.649141,445.85564 C 23.129527,445.58687 30.592583,450.69668 30.592583,471.40504 L 31.600961,617.64236 C 31.735562,634.98911 27.163611,642.31771 14.926506,645.54497 C 21.448396,639.42649 24.272398,629.74476 24.003411,619.05429"
         style="font-size:2.27740002px;letter-spacing:0;word-spacing:0;fill:#ffffff;fill-rule:nonzero;stroke:none;stroke-width:0.38100001;stroke-miterlimit:4;font-family:fnt2, &quot;GillSans&quot;, Arial"
         id="path1703" />
      <path
         d="M 274.05206,549.7345 L 273.11089,403.96805 C 273.31249,386.6213 269.88348,381.57848 263.69779,376.46874 C 273.31249,376.26703 280.64134,381.57848 280.70844,402.15271 L 281.64972,548.45703 C 281.71711,566.00558 278.48973,572.86356 266.4544,576.15807 C 272.97629,570.44293 273.91757,563.18158 274.05206,549.7345"
         style="font-size:2.27740002px;letter-spacing:0;word-spacing:0;fill:#ffffff;fill-rule:nonzero;stroke:none;stroke-width:0.38100001;stroke-miterlimit:4;font-family:fnt2, &quot;GillSans&quot;, Arial"
         id="path1707" />
      <path
         d="M 336.17761,371.15718 L 387.07468,357.23941 C 401.79952,352.93627 415.24671,352.80195 418.20499,364.56819 C 411.27955,361.27349 404.48867,359.79435 387.27653,364.90421 L 336.1105,379.15814 L 336.17761,371.15718"
         style="font-size:2.27740002px;letter-spacing:0;word-spacing:0;fill:#ffffff;fill-rule:nonzero;stroke:none;stroke-width:0.38100001;stroke-miterlimit:4;font-family:fnt2, &quot;GillSans&quot;, Arial"
         id="path1711" />
      <path
         d="M 336.3121,462.7319 L 336.17761,454.86526 L 366.70266,446.46093 C 381.35996,442.29235 394.6053,442.29235 397.83272,453.9912 C 390.97456,450.69668 383.98219,449.15044 366.83715,454.26018 L 336.3121,462.7319"
         style="font-size:2.27740002px;letter-spacing:0;word-spacing:0;fill:#ffffff;fill-rule:nonzero;stroke:none;stroke-width:0.38100001;stroke-miterlimit:4;font-family:fnt2, &quot;GillSans&quot;, Arial"
         id="path1715" />
      <path
         d="M 431.38304,446.46093 C 413.43115,381.57848 475.8929,325.57152 520.33547,308.02297 C 483.75958,329.33669 422.23907,380.09941 439.85491,443.97312 C 456.86556,505.42628 527.66425,504.7541 574.12386,494.46704 C 524.50412,512.75505 449.4695,511.7465 431.38304,446.46093"
         style="font-size:2.27740002px;letter-spacing:0;word-spacing:0;fill:#ffffff;fill-rule:nonzero;stroke:none;stroke-width:0.38100001;stroke-miterlimit:4;font-family:fnt2, &quot;GillSans&quot;, Arial"
         id="path1719" />
      <path
         d="M 176.02284,599.55594 C 165.46697,601.90926 155.71778,591.68948 155.71778,591.68948 L 156.39024,592.83253 L 97.895373,527.0762 L 160.76049,443.23352 C 173.60242,426.96254 174.4091,407.32995 156.18825,406.11958 C 164.7945,414.25514 164.52552,426.22304 153.56624,440.34241 L 88.146109,527.54671 L 156.72616,605.00207 L 165.33237,602.51423 L 176.02284,599.55594"
         style="font-size:2.27740002px;letter-spacing:0;word-spacing:0;fill:#ffffff;fill-rule:nonzero;stroke:none;stroke-width:0.38100001;stroke-miterlimit:4;font-family:fnt2, &quot;GillSans&quot;, Arial"
         id="path1723" />
      <path
         d="M 664.28665,274.40543 C 668.11925,278.23781 670.06901,282.94425 670.06901,288.52498 C 670.06901,294.10523 668.11925,298.87907 664.28665,302.77862 C 660.38678,306.61104 655.68023,308.62833 650.30192,308.62833 C 644.78834,308.62833 640.01451,306.61104 636.18227,302.64434 C 632.28239,298.87907 630.33299,294.10523 630.33299,288.52498 C 630.33299,282.94425 632.28239,278.23781 636.18227,274.40543 C 640.14943,270.57283 644.78834,268.75742 650.30192,268.75742 C 655.68023,268.75742 660.38678,270.57283 664.28665,274.40543 z M 666.64011,272.25379 C 662.06776,267.68194 656.82367,265.53041 650.30192,265.53041 C 643.91438,265.53041 638.53537,267.68194 633.96374,272.25379 C 629.45868,276.69124 627.17286,282.1374 627.17286,288.52498 C 627.17286,294.91219 629.39139,300.49281 633.96374,304.93016 C 638.33388,309.36783 643.8471,311.72114 650.30192,311.72114 C 656.6891,311.72114 662.06776,309.36783 666.64011,304.93016 C 671.14481,300.49281 673.49791,294.91219 673.49791,288.52498 C 673.49791,282.1374 671.14481,276.69124 666.64011,272.25379 z M 653.73082,287.2474 C 652.85651,287.78541 651.31009,288.05411 649.42761,288.05411 L 645.46081,288.05411 L 645.46081,278.84289 L 649.29304,278.84289 C 651.71378,278.84289 653.52898,279.11187 654.67206,279.85144 C 655.68023,280.38942 656.28577,281.66689 656.28577,283.34766 C 656.28577,285.36467 655.41145,286.91124 653.73082,287.2474 z M 641.02339,301.36687 L 645.46081,301.36687 L 645.46081,291.21409 L 648.88971,291.21409 C 651.31009,291.21409 652.99107,291.55029 653.93231,292.08819 C 655.54602,292.89515 656.28577,294.91219 656.28577,297.93786 L 656.28577,299.75313 L 656.42033,300.49281 C 656.42033,300.62712 656.42033,300.96328 656.42033,301.03067 C 656.42033,301.03067 656.42033,301.16499 656.55454,301.36687 L 660.79047,301.36687 L 660.58898,300.96328 C 660.38678,300.49281 660.38678,300.22364 660.38678,299.48414 C 660.31985,298.87907 660.25257,298.34117 660.25257,297.8033 L 660.25257,295.65176 C 660.25257,294.50879 659.84923,293.23142 658.90764,291.95395 C 657.9664,290.54191 656.42033,289.66785 654.60478,289.39875 C 656.01664,289.06277 657.36157,288.79378 658.23553,288.25581 C 659.84923,286.91124 660.58898,285.36467 660.58898,282.94425 C 660.58898,279.98576 659.31133,277.69991 656.82367,276.69124 C 655.27725,276.08617 652.99107,275.81718 649.89823,275.81718 L 641.02339,275.81718 L 641.02339,301.36687"
         style="font-size:2.27740002px;letter-spacing:0;word-spacing:0;fill:#df0038;fill-rule:nonzero;stroke:none;stroke-width:0.38100001;stroke-miterlimit:4;font-family:fnt2, &quot;GillSans&quot;, Arial"
         id="path1735" />
    </g>
  </g>
</svg>
